<svg  viewBox="0 0 18 18" fill="none" xmlns="http://www.w3.org/2000/svg">
<path d="M15.9375 8.0625H9.9375V2.0625C9.9375 1.95 9.8625 1.875 9.75 1.875H8.25C8.1375 1.875 8.0625 1.95 8.0625 2.0625V8.0625H2.0625C1.95 8.0625 1.875 8.1375 1.875 8.25V9.75C1.875 9.8625 1.95 9.9375 2.0625 9.9375H8.0625V15.9375C8.0625 16.05 8.1375 16.125 8.25 16.125H9.75C9.8625 16.125 9.9375 16.05 9.9375 15.9375V9.9375H15.9375C16.05 9.9375 16.125 9.8625 16.125 9.75V8.25C16.125 8.1375 16.05 8.0625 15.9375 8.0625Z" fill="#1A1D1F"/>
</svg>
