<svg width="36" height="36" viewBox="0 0" fill="none" xmlns="http://www.w3.org/2000/svg">
<path fill-rule="evenodd" clip-rule="evenodd" d="M19.2654 23.9996H16.735L16.478 24.9585C15.5031 28.597 11.7632 30.7562 8.12474 29.7813C4.48627 28.8064 2.32704 25.0665 3.30196 21.428L5.88152 11.801C6.85644 8.16254 10.5963 6.00331 14.2348 6.97823C15.8135 7.40124 17.1137 8.34475 18.0002 9.57465C18.8868 8.34475 20.187 7.40124 21.7656 6.97823C25.4041 6.00331 29.144 8.16254 30.1189 11.801L32.6985 21.428C33.6734 25.0665 31.5142 28.8064 27.8757 29.7813C24.2372 30.7562 20.4973 28.597 19.5224 24.9585L19.2654 23.9996ZM26.1847 27.1574C28.4448 27.1574 30.277 25.2563 30.277 22.9112C30.277 20.5661 28.4448 18.665 26.1847 18.665C23.9246 18.665 22.0925 20.5661 22.0925 22.9112C22.0925 25.2563 23.9246 27.1574 26.1847 27.1574ZM9.81569 27.1574C12.0758 27.1574 13.908 25.2563 13.908 22.9112C13.908 20.5661 12.0758 18.665 9.81569 18.665C7.5556 18.665 5.72343 20.5661 5.72343 22.9112C5.72343 25.2563 7.5556 27.1574 9.81569 27.1574Z" fill="#FF4800"/>
</svg>
