<svg width="36" height="36" viewBox="0 0 36 36" fill="none" xmlns="http://www.w3.org/2000/svg">
<path opacity="0.3" d="M30 7.5H6C4.34315 7.5 3 8.84315 3 10.5V25.5C3 27.1569 4.34315 28.5 6 28.5H30C31.6569 28.5 33 27.1569 33 25.5V10.5C33 8.84315 31.6569 7.5 30 7.5Z" fill="#B8BDC4"/>
<path d="M33 12H3V16.5H33V12Z" fill="#B8BDC4"/>
<path opacity="0.3" d="M28.5 21H25.5C24.6716 21 24 21.6716 24 22.5C24 23.3284 24.6716 24 25.5 24H28.5C29.3284 24 30 23.3284 30 22.5C30 21.6716 29.3284 21 28.5 21Z" fill="#B8BDC4"/>
</svg>
