<svg width="36" height="36" viewBox="0 0 36 36" fill="none" xmlns="http://www.w3.org/2000/svg">
<path d="M12.375 30.375C12.9963 30.375 13.5 29.8713 13.5 29.25C13.5 28.6287 12.9963 28.125 12.375 28.125C11.7537 28.125 11.25 28.6287 11.25 29.25C11.25 29.8713 11.7537 30.375 12.375 30.375Z" stroke="white" stroke-width="2.5" stroke-linecap="round" stroke-linejoin="round"/>
<path d="M28.125 30.375C28.7463 30.375 29.25 29.8713 29.25 29.25C29.25 28.6287 28.7463 28.125 28.125 28.125C27.5037 28.125 27 28.6287 27 29.25C27 29.8713 27.5037 30.375 28.125 30.375Z" stroke="white" stroke-width="2.5" stroke-linecap="round" stroke-linejoin="round"/>
<path d="M3.375 5.625H7.875L11.25 24.75H29.25" stroke="white" stroke-width="2.5" stroke-linecap="round" stroke-linejoin="round"/>
<path d="M11.25 18.75H28.7888C28.9188 18.7501 29.0449 18.7051 29.1456 18.6227C29.2462 18.5402 29.3152 18.4255 29.3407 18.2979L31.3657 8.17289C31.382 8.09125 31.3801 8.00699 31.3599 7.92621C31.3397 7.84543 31.3019 7.77014 31.249 7.70576C31.1962 7.64138 31.1298 7.58953 31.0545 7.55395C30.9793 7.51837 30.897 7.49994 30.8138 7.5H9" stroke="white" stroke-width="2.5" stroke-linecap="round" stroke-linejoin="round"/>
</svg>
