<svg viewBox="0 0 30 31" fill="none" xmlns="http://www.w3.org/2000/svg">
<g>
<path d="M10.3125 25.8125C10.8303 25.8125 11.25 25.3928 11.25 24.875C11.25 24.3572 10.8303 23.9375 10.3125 23.9375C9.79473 23.9375 9.375 24.3572 9.375 24.875C9.375 25.3928 9.79473 25.8125 10.3125 25.8125Z" stroke="#1A1D1F" stroke-width="2" stroke-linecap="round" stroke-linejoin="round"/>
<path d="M23.4375 25.8125C23.9553 25.8125 24.375 25.3928 24.375 24.875C24.375 24.3572 23.9553 23.9375 23.4375 23.9375C22.9197 23.9375 22.5 24.3572 22.5 24.875C22.5 25.3928 22.9197 25.8125 23.4375 25.8125Z" stroke="#1A1D1F" stroke-width="2" stroke-linecap="round" stroke-linejoin="round"/>
<path d="M2.8125 5.1875H6.5625L9.375 21.125H24.375" stroke="#1A1D1F" stroke-width="2" stroke-linecap="round" stroke-linejoin="round"/>
<path d="M9.375 16.125H23.9906C24.099 16.1251 24.2041 16.0876 24.288 16.0189C24.3718 15.9502 24.4293 15.8545 24.4506 15.7482L26.1381 7.31074C26.1517 7.24271 26.15 7.1725 26.1332 7.10518C26.1164 7.03786 26.0849 6.97511 26.0409 6.92147C25.9969 6.86782 25.9415 6.82461 25.8788 6.79496C25.816 6.76531 25.7475 6.74995 25.6781 6.75H7.5" stroke="#1A1D1F" stroke-width="2" stroke-linecap="round" stroke-linejoin="round"/>
</g>
</svg>
