<svg width="36" height="36" viewBox="0 0 36 36" fill="none" xmlns="http://www.w3.org/2000/svg">
<path opacity="0.3" d="M18 33C26.2843 33 33 26.2843 33 18C33 9.71573 26.2843 3 18 3C9.71573 3 3 9.71573 3 18C3 26.2843 9.71573 33 18 33Z" fill="#B8BDC4"/>
<path d="M25.1534 11.7265C25.7187 11.1209 26.6679 11.0882 27.2735 11.6534C27.8791 12.2187 27.9119 13.1679 27.3466 13.7735L16.8466 25.0235C16.2982 25.6111 15.3841 25.662 14.7738 25.1389L9.52384 20.6389C8.89485 20.0998 8.82201 19.1528 9.36114 18.5238C9.90028 17.8948 10.8472 17.822 11.4762 18.3611L15.6345 21.9254L25.1534 11.7265Z" fill="#B8BDC4"/>
</svg>
