<svg width="26" height="26" viewBox="0 0 " fill="none" xmlns="http://www.w3.org/2000/svg">
<path opacity="0.3" fill-rule="evenodd" clip-rule="evenodd" d="M15.6932 19.5L13.8638 22.8113C13.5744 23.335 12.9153 23.5249 12.3917 23.2357C12.239 23.1513 12.109 23.0313 12.0126 22.886L9.76775 19.5H5.4165C3.62158 19.5 2.1665 18.045 2.1665 16.25V6.5C2.1665 4.70508 3.62158 3.25 5.4165 3.25H20.5832C22.3781 3.25 23.8332 4.70508 23.8332 6.5V16.25C23.8332 18.045 22.3781 19.5 20.5832 19.5H15.6932Z" fill="#FF4800"/>
<path fill-rule="evenodd" clip-rule="evenodd" d="M6.49984 7.58398H16.2498C16.8482 7.58398 17.3332 8.06901 17.3332 8.66732C17.3332 9.26562 16.8482 9.75065 16.2498 9.75065H6.49984C5.90153 9.75065 5.4165 9.26562 5.4165 8.66732C5.4165 8.06901 5.90153 7.58398 6.49984 7.58398ZM6.49984 11.9173H11.9165C12.5148 11.9173 12.9998 12.4023 12.9998 13.0007C12.9998 13.599 12.5148 14.084 11.9165 14.084H6.49984C5.90153 14.084 5.4165 13.599 5.4165 13.0007C5.4165 12.4023 5.90153 11.9173 6.49984 11.9173Z" fill="currentColor"/>
</svg>
