<svg viewBox="0 0 36 36" fill="none" xmlns="http://www.w3.org/2000/svg">
<g id="Group">
<path id="Vector" opacity="0.3" fill-rule="evenodd" clip-rule="evenodd" d="M18 33C10.5442 33 4.5 26.9558 4.5 19.5C4.5 12.0442 10.5442 6 18 6C25.4558 6 31.5 12.0442 31.5 19.5C31.5 26.9558 25.4558 33 18 33Z" fill="currentColor"/>
<path id="Vector_2" fill-rule="evenodd" clip-rule="evenodd" d="M17.9461 11.25H18.0728C18.4581 11.25 18.7808 11.542 18.8191 11.9254L19.5016 18.75L24.3737 21.5341C24.6074 21.6676 24.7516 21.9161 24.7516 22.1852V22.5C24.7516 22.8164 24.4951 23.0728 24.1787 23.0728C24.1278 23.0728 24.0771 23.0661 24.028 23.0527L17.0996 21.1631C16.7525 21.0684 16.5215 20.7407 16.5491 20.382L17.1983 11.9425C17.2284 11.5517 17.5542 11.25 17.9461 11.25Z" fill="currentColor"/>
</g>
</svg>
