<svg width="56" height="56" viewBox="0 0 56 56" fill="none" xmlns="http://www.w3.org/2000/svg">
<rect x="0.5" y="0.5" width="55" height="55" rx="27.5" fill="white"/>
<rect x="0.5" y="0.5" width="55" height="55" rx="27.5" stroke="#B8BDC4"/>
<path fill-rule="evenodd" clip-rule="evenodd" d="M39.04 28.2605C39.04 27.445 38.9668 26.6609 38.8309 25.9082H28V30.3566H34.1891C33.9225 31.7941 33.1123 33.0121 31.8943 33.8275V36.713H35.6109C37.7855 34.7109 39.04 31.7627 39.04 28.2605Z" fill="#4285F4"/>
<path fill-rule="evenodd" clip-rule="evenodd" d="M27.9995 39.5005C31.1045 39.5005 33.7077 38.4708 35.6104 36.7144L31.8938 33.829C30.864 34.519 29.5467 34.9267 27.9995 34.9267C25.0042 34.9267 22.469 32.9037 21.5647 30.1855H17.7227V33.1651C19.6149 36.9235 23.504 39.5005 27.9995 39.5005Z" fill="#34A853"/>
<path fill-rule="evenodd" clip-rule="evenodd" d="M21.5652 30.1855C21.3352 29.4955 21.2045 28.7584 21.2045 28.0005C21.2045 27.2425 21.3352 26.5055 21.5652 25.8155V22.8359H17.7232C16.9443 24.3884 16.5 26.1448 16.5 28.0005C16.5 29.8562 16.9443 31.6125 17.7232 33.165L21.5652 30.1855Z" fill="#FBBC05"/>
<path fill-rule="evenodd" clip-rule="evenodd" d="M27.9995 21.0739C29.6879 21.0739 31.2038 21.6541 32.3956 22.7936L35.694 19.4952C33.7024 17.6395 31.0992 16.5 27.9995 16.5C23.504 16.5 19.6149 19.077 17.7227 22.8355L21.5647 25.815C22.469 23.0968 25.0042 21.0739 27.9995 21.0739Z" fill="#EA4335"/>
</svg>
