<svg viewBox="0 0 16 16" fill="none" xmlns="http://www.w3.org/2000/svg">
<g clip-path="url(#clip0_130_11863)">
<path d="M7.99935 0.666016C3.93268 0.666016 0.666016 3.93268 0.666016 7.99935C0.666016 12.066 3.93268 15.3327 7.99935 15.3327C12.066 15.3327 15.3327 12.066 15.3327 7.99935C15.3327 3.93268 12.066 0.666016 7.99935 0.666016ZM8.83268 11.5993C8.83268 11.6327 8.79935 11.666 8.76602 11.666H7.23268C7.19935 11.666 7.16602 11.6327 7.16602 11.5993V7.06602C7.16602 7.03268 7.19935 6.99935 7.23268 6.99935H8.76602C8.79935 6.99935 8.83268 7.03268 8.83268 7.06602V11.5993ZM7.99935 5.99935C7.43268 5.99935 6.99935 5.56602 6.99935 4.99935C6.99935 4.43268 7.43268 3.99935 7.99935 3.99935C8.56602 3.99935 8.99935 4.43268 8.99935 4.99935C8.99935 5.56602 8.56602 5.99935 7.99935 5.99935Z" fill="currentColor"/>
</g>
<defs>
<clipPath id="clip0_130_11863">
<rect width="16" height="16" fill="white"/>
</clipPath>
</defs>
</svg>
