<svg width="18" height="18" viewBox="0 0 18 18" fill="none" xmlns="http://www.w3.org/2000/svg">
<path fill-rule="evenodd" clip-rule="evenodd" d="M6.96875 7.64714V13.7409L7.74916 14.001C8.57763 14.2772 9.44521 14.418 10.3185 14.418H12.7514C13.7197 14.418 14.5534 13.7345 14.7432 12.7851L15.2505 10.2487C15.4705 9.14869 14.7571 8.07857 13.6571 7.85856C13.4816 7.82346 13.3022 7.81171 13.1236 7.82362L10.6927 7.98568L10.9393 5.27317C10.9857 4.76304 10.6097 4.3119 10.0996 4.26553C10.0717 4.26299 10.0437 4.26172 10.0156 4.26172C9.38553 4.26172 8.80164 4.59231 8.47747 5.13261L6.96875 7.64714Z" fill="#656A70"/>
<path opacity="0.7" d="M4.93709 6.96875H2.90584C2.5319 6.96875 2.22876 7.27189 2.22876 7.64583V13.7396C2.22876 14.1135 2.5319 14.4167 2.90584 14.4167H4.93709C5.31104 14.4167 5.61418 14.1135 5.61418 13.7396V7.64583C5.61418 7.27189 5.31104 6.96875 4.93709 6.96875Z" fill="#656A70"/>
</svg>
