<svg viewBox="0 0 20 20" fill="none" xmlns="http://www.w3.org/2000/svg">
<g>
<path fill-rule="evenodd" clip-rule="evenodd" d="M15.4167 5C16.1071 5 16.6667 5.55964 16.6667 6.25V15.4167C16.6667 16.107 16.1071 16.6667 15.4167 16.6667C14.7264 16.6667 14.1667 16.107 14.1667 15.4167V6.25C14.1667 5.55964 14.7264 5 15.4167 5ZM10.4167 9.16667C11.1071 9.16667 11.6667 9.72631 11.6667 10.4167V15.4167C11.6667 16.107 11.1071 16.6667 10.4167 16.6667C9.72639 16.6667 9.16675 16.107 9.16675 15.4167V10.4167C9.16675 9.72631 9.72639 9.16667 10.4167 9.16667ZM5.41675 12.5C6.1071 12.5 6.66675 13.0596 6.66675 13.75V15.4167C6.66675 16.107 6.1071 16.6667 5.41675 16.6667C4.72639 16.6667 4.16675 16.107 4.16675 15.4167V13.75C4.16675 13.0596 4.72639 12.5 5.41675 12.5Z" fill="currentColor"/>
</g>
</svg>
