<svg viewBox="0 0 36 36" fill="none" xmlns="http://www.w3.org/2000/svg">
<g id="Group">
<path id="Vector" fill-rule="evenodd" clip-rule="evenodd" d="M23.9955 23.4474V18C23.9955 15.5147 21.9808 13.5 19.4955 13.5H9.23828V8.28947C9.23828 6.19661 10.9349 4.5 13.0278 4.5H30.712C32.8048 4.5 34.5014 6.19661 34.5014 8.28947V19.6579L34.5265 26.6802C34.5279 27.0944 34.1933 27.4314 33.7791 27.4329C33.5793 27.4336 33.3874 27.3545 33.2461 27.2132L29.4803 23.4474H23.9955Z" fill="currentColor"/>
<path id="Vector_2" opacity="0.3" fill-rule="evenodd" clip-rule="evenodd" d="M2.97656 27V19.5C2.97656 17.8431 4.31971 16.5 5.97656 16.5H17.9766C19.6334 16.5 20.9766 17.8431 20.9766 19.5V27C20.9766 28.6569 19.6334 30 17.9766 30H6.15016L4.28438 31.7858C3.98514 32.0722 3.51038 32.0618 3.22397 31.7626C3.09037 31.623 3.01579 31.4372 3.01579 31.244V27.4864C2.98998 27.3281 2.97656 27.1656 2.97656 27ZM9.74898 21C9.33476 21 8.99898 21.3358 8.99898 21.75C8.99898 22.1642 9.33476 22.5 9.74898 22.5H17.249C17.6632 22.5 17.999 22.1642 17.999 21.75C17.999 21.3358 17.6632 21 17.249 21H9.74898ZM14.249 24C13.8348 24 13.499 24.3358 13.499 24.75C13.499 25.1642 13.8348 25.5 14.249 25.5H17.249C17.6632 25.5 17.999 25.1642 17.999 24.75C17.999 24.3358 17.6632 24 17.249 24H14.249Z" fill="currentColor"/>
</g>
</svg>
