<svg viewBox="0 0 20 20" fill="none" xmlns="http://www.w3.org/2000/svg">
<g>
<path opacity="0.3" d="M9.01892 6.97451L10.6104 8.18582C11.1761 7.44261 12.0494 7 13 7C14.6569 7 16 8.34315 16 10C16 11.6569 14.6569 13 13 13C12.1512 13 11.3636 12.6484 10.7979 12.0373L9.3303 13.3961C10.2436 14.3825 11.5497 15 13 15C15.7614 15 18 12.7614 18 10C18 7.23858 15.7614 5 13 5C11.3757 5 9.93224 5.77457 9.01892 6.97451Z" fill="currentColor"/>
<path fill-rule="evenodd" clip-rule="evenodd" d="M7.00012 15C4.2387 15 2.00012 12.7614 2.00012 10C2.00012 7.23858 4.2387 5 7.00012 5C9.76155 5 12.0001 7.23858 12.0001 10C12.0001 12.7614 9.76155 15 7.00012 15Z" fill="currentColor"/>
</g>
</svg>
