<svg viewBox="0 0 36 36" fill="none" xmlns="http://www.w3.org/2000/svg">
<g id="Group">
<path id="Vector" d="M32.6253 10.6479L19.3513 24.4713C18.9384 24.9013 18.3716 25.1499 17.7756 25.1624L12.1907 25.2795L12.3083 19.6718C12.3206 19.0893 12.5583 18.5342 12.9714 18.1234L26.5472 4.62519C27.4266 3.75081 28.8478 3.75284 29.7247 4.62974L32.5934 7.49847C33.4595 8.36458 33.4737 9.76439 32.6253 10.6479Z" fill="currentColor"/>
<path id="Vector_2" opacity="0.3" d="M19.35 3C20.1784 3 20.85 3.67157 20.85 4.5C20.85 5.32843 20.1784 6 19.35 6H9C7.34315 6 6 7.34315 6 9V27C6 28.6569 7.34315 30 9 30H27C28.6569 30 30 28.6569 30 27V19.5C30 18.6716 30.6716 18 31.5 18C32.3284 18 33 18.6716 33 19.5V27C33 30.3137 30.3137 33 27 33H9C5.68629 33 3 30.3137 3 27V9C3 5.68629 5.68629 3 9 3H19.35Z" fill="currentColor"/>
</g>
</svg>
