<svg viewBox="0 0 36 36" fill="none" xmlns="http://www.w3.org/2000/svg">
<g id="Group">
<path id="Vector" fill-rule="evenodd" clip-rule="evenodd" d="M12 19.75L30.6706 17.9997L12 16.2493V8.65741C12 8.5513 12.0225 8.4464 12.0661 8.34964C12.236 7.97191 12.68 7.80349 13.0578 7.97347L33.8183 17.3157C33.9855 17.3909 34.1193 17.5247 34.1945 17.6919C34.3645 18.0696 34.1961 18.5136 33.8183 18.6836L13.0578 28.0259C12.961 28.0694 12.8561 28.0919 12.75 28.0919C12.3358 28.0919 12 27.7561 12 27.3419V19.75Z" fill="currentColor"/>
<path id="Vector_2" opacity="0.3" fill-rule="evenodd" clip-rule="evenodd" d="M6 24H7.5C8.32843 24 9 24.6716 9 25.5C9 26.3284 8.32843 27 7.5 27H6C5.17157 27 4.5 26.3284 4.5 25.5C4.5 24.6716 5.17157 24 6 24ZM1.5 16.5H7.5C8.32843 16.5 9 17.1716 9 18C9 18.8284 8.32843 19.5 7.5 19.5H1.5C0.671573 19.5 0 18.8284 0 18C0 17.1716 0.671573 16.5 1.5 16.5ZM6 9H7.5C8.32843 9 9 9.67157 9 10.5C9 11.3284 8.32843 12 7.5 12H6C5.17157 12 4.5 11.3284 4.5 10.5C4.5 9.67157 5.17157 9 6 9Z" fill="currentColor"/>
</g>
</svg>
