<svg width="26" height="26" viewBox="0 0 26 26" fill="none" xmlns="http://www.w3.org/2000/svg">
<path d="M19.5 8.66797C21.2949 8.66797 22.75 7.21289 22.75 5.41797C22.75 3.62304 21.2949 2.16797 19.5 2.16797C17.7051 2.16797 16.25 3.62304 16.25 5.41797C16.25 7.21289 17.7051 8.66797 19.5 8.66797Z" stroke="black" stroke-width="2" stroke-linecap="round" stroke-linejoin="round"/>
<path d="M6.5 16.25C8.29493 16.25 9.75 14.7949 9.75 13C9.75 11.2051 8.29493 9.75 6.5 9.75C4.70507 9.75 3.25 11.2051 3.25 13C3.25 14.7949 4.70507 16.25 6.5 16.25Z" stroke="black" stroke-width="2" stroke-linecap="round" stroke-linejoin="round"/>
<path d="M19.5 23.832C21.2949 23.832 22.75 22.377 22.75 20.582C22.75 18.7871 21.2949 17.332 19.5 17.332C17.7051 17.332 16.25 18.7871 16.25 20.582C16.25 22.377 17.7051 23.832 19.5 23.832Z" stroke="black" stroke-width="2" stroke-linecap="round" stroke-linejoin="round"/>
<path d="M9.30566 14.6367L16.7048 18.9484" stroke="black" stroke-width="2" stroke-linecap="round" stroke-linejoin="round"/>
<path d="M16.694 7.05078L9.30566 11.3624" stroke="black" stroke-width="2" stroke-linecap="round" stroke-linejoin="round"/>
</svg>
