<svg width="36" height="36" viewBox="0 0 36 36" fill="none" xmlns="http://www.w3.org/2000/svg">
<path fill-rule="evenodd" clip-rule="evenodd" d="M27.75 9C28.9926 9 30 10.0074 30 11.25V27.75C30 28.9926 28.9926 30 27.75 30C26.5074 30 25.5 28.9926 25.5 27.75V11.25C25.5 10.0074 26.5074 9 27.75 9ZM18.75 16.5C19.9926 16.5 21 17.5074 21 18.75V27.75C21 28.9926 19.9926 30 18.75 30C17.5074 30 16.5 28.9926 16.5 27.75V18.75C16.5 17.5074 17.5074 16.5 18.75 16.5ZM9.75 22.5C10.9926 22.5 12 23.5074 12 24.75V27.75C12 28.9926 10.9926 30 9.75 30C8.50736 30 7.5 28.9926 7.5 27.75V24.75C7.5 23.5074 8.50736 22.5 9.75 22.5Z" fill="url(#paint0_linear_693_29287)"/>
<defs>
<linearGradient id="paint0_linear_693_29287" x1="7.92556" y1="2.71741" x2="29.9746" y2="3.09624" gradientUnits="userSpaceOnUse">
<stop stop-color="#FF4800"/>
<stop offset="0.5" stop-color="#FF5EA0"/>
<stop offset="1" stop-color="#9D00FF"/>
</linearGradient>
</defs>
</svg>
