<svg width="36" height="36" viewBox="0 0 36 36" fill="none" xmlns="http://www.w3.org/2000/svg">
<g id="Group">
<path id="Vector" opacity="0.3" fill-rule="evenodd" clip-rule="evenodd" d="M18 30.0336L12.7101 32.5938L10.3035 27.2323L4.60569 25.7933L6.20837 20.1393L2.76855 15.3744L7.63061 12.0734L8.05836 6.21219L13.9048 6.80872L18 2.59375L22.0951 6.80872L27.9415 6.21219L28.3693 12.0734L33.2314 15.3744L29.7915 20.1393L31.3942 25.7933L25.6964 27.2323L23.2898 32.5938L18 30.0336Z" fill="url(#paint0_linear_2466_70418)"/>
<path id="Vector_2" fill-rule="evenodd" clip-rule="evenodd" d="M21.1337 12.9043L12.5413 22.0526L14.5631 24.0745L23.1555 14.9261L21.1337 12.9043Z" fill="url(#paint1_linear_2466_70418)"/>
<path id="Vector_3" opacity="0.3" fill-rule="evenodd" clip-rule="evenodd" d="M16.2814 13.7633C16.2814 15.1881 15.1282 16.341 13.7037 16.341C12.2818 16.341 11.126 15.1881 11.126 13.7633C11.126 12.3385 12.2818 11.1855 13.7037 11.1855C15.1282 11.1855 16.2814 12.3385 16.2814 13.7633Z" fill="url(#paint2_linear_2466_70418)"/>
<path id="Vector_4" opacity="0.3" fill-rule="evenodd" clip-rule="evenodd" d="M22.2962 24.9328C20.8744 24.9328 19.7185 23.7799 19.7185 22.3551C19.7185 20.9276 20.8744 19.7773 22.2962 19.7773C23.7207 19.7773 24.874 20.9276 24.874 22.3551C24.874 23.7799 23.7207 24.9328 22.2962 24.9328Z" fill="url(#paint3_linear_2466_70418)"/>
</g>
<defs>
<linearGradient id="paint0_linear_2466_70418" x1="3.34472" y1="-6.38138" x2="33.1979" y2="-5.89527" gradientUnits="userSpaceOnUse">
<stop stop-color="#FF4800"/>
<stop offset="0.5" stop-color="#FF5EA0"/>
<stop offset="1" stop-color="#9D00FF"/>
</linearGradient>
<linearGradient id="paint1_linear_2466_70418" x1="12.742" y1="9.56251" x2="23.1442" y2="9.72102" gradientUnits="userSpaceOnUse">
<stop stop-color="#FF4800"/>
<stop offset="0.5" stop-color="#FF5EA0"/>
<stop offset="1" stop-color="#9D00FF"/>
</linearGradient>
<linearGradient id="paint2_linear_2466_70418" x1="11.2235" y1="9.64318" x2="16.2758" y2="9.7242" gradientUnits="userSpaceOnUse">
<stop stop-color="#FF4800"/>
<stop offset="0.5" stop-color="#FF5EA0"/>
<stop offset="1" stop-color="#9D00FF"/>
</linearGradient>
<linearGradient id="paint3_linear_2466_70418" x1="19.816" y1="18.235" x2="24.8683" y2="18.316" gradientUnits="userSpaceOnUse">
<stop stop-color="#FF4800"/>
<stop offset="0.5" stop-color="#FF5EA0"/>
<stop offset="1" stop-color="#9D00FF"/>
</linearGradient>
</defs>
</svg>
