<svg width="74" height="31" viewBox="0 0 74 31" fill="none" xmlns="http://www.w3.org/2000/svg">
<path d="M16.8627 31.004C14.5387 31.004 12.3827 30.626 10.3947 29.87C8.43468 29.114 6.72668 28.05 5.27068 26.678C3.84268 25.306 2.72268 23.696 1.91068 21.848C1.12668 20 0.73468 17.984 0.73468 15.8C0.73468 13.616 1.12668 11.6 1.91068 9.752C2.72268 7.904 3.85668 6.294 5.31268 4.922C6.76868 3.55 8.47668 2.486 10.4367 1.73C12.3967 0.973999 14.5247 0.595999 16.8207 0.595999C19.1447 0.595999 21.2727 0.973999 23.2047 1.73C25.1647 2.486 26.8587 3.55 28.2867 4.922C29.7427 6.294 30.8767 7.904 31.6887 9.752C32.5007 11.572 32.9067 13.588 32.9067 15.8C32.9067 17.984 32.5007 20.014 31.6887 21.89C30.8767 23.738 29.7427 25.348 28.2867 26.72C26.8587 28.064 25.1647 29.114 23.2047 29.87C21.2727 30.626 19.1587 31.004 16.8627 31.004ZM16.8207 25.208C18.1367 25.208 19.3407 24.984 20.4327 24.536C21.5527 24.088 22.5327 23.444 23.3727 22.604C24.2127 21.764 24.8567 20.77 25.3047 19.622C25.7807 18.474 26.0187 17.2 26.0187 15.8C26.0187 14.4 25.7807 13.126 25.3047 11.978C24.8567 10.83 24.2127 9.836 23.3727 8.996C22.5607 8.156 21.5947 7.512 20.4747 7.064C19.3547 6.616 18.1367 6.392 16.8207 6.392C15.5047 6.392 14.2867 6.616 13.1667 7.064C12.0747 7.512 11.1087 8.156 10.2687 8.996C9.42868 9.836 8.77068 10.83 8.29468 11.978C7.84668 13.126 7.62268 14.4 7.62268 15.8C7.62268 17.172 7.84668 18.446 8.29468 19.622C8.77068 20.77 9.41468 21.764 10.2267 22.604C11.0667 23.444 12.0467 24.088 13.1667 24.536C14.2867 24.984 15.5047 25.208 16.8207 25.208ZM37.5582 30.5V7.904H43.8162V14.288L42.9342 12.44C43.6062 10.844 44.6842 9.64 46.1682 8.828C47.6522 7.988 49.4582 7.568 51.5862 7.568V13.616C51.3062 13.588 51.0542 13.574 50.8302 13.574C50.6062 13.546 50.3682 13.532 50.1162 13.532C48.3242 13.532 46.8682 14.05 45.7482 15.086C44.6562 16.094 44.1102 17.676 44.1102 19.832V30.5H37.5582ZM67.8654 30.5V26.09L67.4454 25.124V17.228C67.4454 15.828 67.0114 14.736 66.1434 13.952C65.3034 13.168 64.0014 12.776 62.2374 12.776C61.0334 12.776 59.8434 12.972 58.6674 13.364C57.5194 13.728 56.5394 14.232 55.7274 14.876L53.3754 10.298C54.6074 9.43 56.0914 8.758 57.8274 8.282C59.5634 7.806 61.3274 7.568 63.1194 7.568C66.5634 7.568 69.2374 8.38 71.1414 10.004C73.0454 11.628 73.9974 14.162 73.9974 17.606V30.5H67.8654ZM60.9774 30.836C59.2134 30.836 57.7014 30.542 56.4414 29.954C55.1814 29.338 54.2154 28.512 53.5434 27.476C52.8714 26.44 52.5354 25.278 52.5354 23.99C52.5354 22.646 52.8574 21.47 53.5014 20.462C54.1734 19.454 55.2234 18.67 56.6514 18.11C58.0794 17.522 59.9414 17.228 62.2374 17.228H68.2434V21.05H62.9514C61.4114 21.05 60.3474 21.302 59.7594 21.806C59.1994 22.31 58.9194 22.94 58.9194 23.696C58.9194 24.536 59.2414 25.208 59.8854 25.712C60.5574 26.188 61.4674 26.426 62.6154 26.426C63.7074 26.426 64.6874 26.174 65.5554 25.67C66.4234 25.138 67.0534 24.368 67.4454 23.36L68.4534 26.384C67.9774 27.84 67.1094 28.946 65.8494 29.702C64.5894 30.458 62.9654 30.836 60.9774 30.836Z" fill="#FF4800"/>
</svg>
