<svg width="18" height="19" viewBox="0 0 18 19" fill="none" xmlns="http://www.w3.org/2000/svg">
<path d="M9.00104 1.25C8.92604 1.25 8.85104 1.2875 8.81354 1.3625L6.45104 6.1625C6.41354 6.275 6.30104 6.35 6.15104 6.35L0.901042 7.1375C0.751042 7.175 0.676042 7.3625 0.788542 7.475L4.61354 11.225C4.68854 11.3 4.72604 11.45 4.72604 11.5625L3.82604 16.8125C3.78854 16.925 3.90104 17.0375 4.01354 17.0375C4.05104 17.0375 4.08854 17.0375 4.08854 17L8.81354 14.525C8.92604 14.45 9.03854 14.45 9.15104 14.525L13.876 16.9625C13.9135 16.9625 13.951 17 13.951 17C14.0635 17 14.176 16.8875 14.1385 16.775L13.2385 11.525C13.201 11.4125 13.276 11.2625 13.351 11.1875L17.176 7.4375C17.2885 7.325 17.2135 7.1375 17.0635 7.1L11.776 6.3125C11.6635 6.3125 11.551 6.2 11.476 6.125L9.18854 1.3625C9.15104 1.2875 9.07604 1.25 9.00104 1.25Z" fill="#42464B"/>
</svg>
